<svg width="1440" height="962" viewBox="0 0 1440 962" fill="none" xmlns="http://www.w3.org/2000/svg">
<path fill-rule="evenodd" clip-rule="evenodd" d="M0 0H735C743.5 116.5 985 119.5 1063.5 109.5C1142 99.5 1390.5 104 1442 258L1440.24 933.338C1395.29 917.583 1346.85 909 1296.36 909C1238.69 909 1183.7 920.197 1133.52 940.491C1100.85 953.706 1063.94 953.706 1031.26 940.491C981.085 920.197 926.09 909 868.424 909C811.124 909 756.462 920.055 706.544 940.105C674.067 953.15 637.439 953.15 604.961 940.105C555.043 920.055 500.382 909 443.081 909C377.729 909 315.808 923.381 260.443 949.085C223.606 966.188 180.386 966.188 143.549 949.085C99.348 928.564 50.9684 915.26 0 910.729V0Z" fill="url(#paint0_linear)"/>
<defs>
<linearGradient id="paint0_linear" x1="720" y1="-77.4454" x2="720" y2="1024" gradientUnits="userSpaceOnUse">
<stop stop-color="#FFEE94" stop-opacity="0.35"/>
<stop offset="1" stop-color="#FC98C2"/>
</linearGradient>
</defs>
</svg>
